<?xml version="1.0" encoding="UTF-8"?>
<svg width="512px" height="512px" viewBox="0 0 512 512" version="1.1" xmlns="http://www.w3.org/2000/svg" xmlns:xlink="http://www.w3.org/1999/xlink">
    <!-- Generator: Sketch 49.3 (51167) - http://www.bohemiancoding.com/sketch -->
    <title>icon-utility</title>
    <desc>Created with Sketch.</desc>
    <defs></defs>
    <g id="icon-utility" stroke="none" stroke-width="1" fill="none" fill-rule="evenodd">
        <g id="icon" transform="translate(3.000000, 30.000000)" fill="#000000" fill-rule="nonzero">
            <g id="sync">
                <path d="M151.875,124.264 L308.8125,124.264 L270.84375,162.304 L306.28125,197.808 L405,98.904 L306.28125,0 L270.84375,35.504 L308.8125,73.544 L151.875,73.544 C68.34375,73.544 0,142.016 0,225.704 C0,258.672 10.125,291.64 30.375,317 L70.875,286.568 C58.21875,268.816 50.625,248.528 50.625,225.704 C50.625,169.912 96.1875,124.264 151.875,124.264 Z" id="Shape"></path>
                <path d="M476.625,133 L436.125,163.380952 C448.78125,181.103175 456.375,201.357143 456.375,224.142857 C456.375,279.84127 410.8125,325.412698 355.125,325.412698 L198.1875,325.412698 L236.15625,287.436508 L200.71875,251.992063 L102,350.730159 L200.71875,452 L236.15625,416.555556 L198.1875,376.047619 L355.125,376.047619 C438.65625,376.047619 507,307.690476 507,224.142857 C507,191.230159 496.875,158.31746 476.625,133 Z" id="Shape"></path>
            </g>
        </g>
    </g>
</svg>